<svg width="32" height="32" viewBox="0 0 32 32" fill="none" xmlns="http://www.w3.org/2000/svg">
  <!-- Background circle -->
  <circle cx="16" cy="16" r="15" fill="#FF6B6B" stroke="#E53E3E" stroke-width="2"/>
  
  <!-- Gift box base -->
  <rect x="8" y="14" width="16" height="12" rx="1" fill="#4ECDC4"/>
  
  <!-- Gift box lid -->
  <rect x="6" y="12" width="20" height="4" rx="1" fill="#38B2AC"/>
  
  <!-- Ribbon bow -->
  <path d="M16 8 L14 12 L18 12 Z" fill="#FFE66D"/>
  <path d="M16 8 L18 12 L16 16 L14 12 Z" fill="#FF6B6B"/>
  
  <!-- Gift box decorative pattern -->
  <rect x="10" y="16" width="3" height="3" fill="#FFE66D"/>
  <rect x="15" y="16" width="3" height="3" fill="#FFE66D"/>
  <rect x="20" y="16" width="3" height="3" fill="#FFE66D"/>
  <rect x="10" y="21" width="3" height="3" fill="#FFE66D"/>
  <rect x="15" y="21" width="3" height="3" fill="#FFE66D"/>
  <rect x="20" y="21" width="3" height="3" fill="#FFE66D"/>
  
  <!-- Sparkles around the gift -->
  <circle cx="8" cy="8" r="1.5" fill="#FFE66D"/>
  <circle cx="24" cy="8" r="1.5" fill="#FFE66D"/>
  <circle cx="16" cy="4" r="1.5" fill="#FFE66D"/>
  <circle cx="6" cy="20" r="1" fill="#FFE66D"/>
  <circle cx="26" cy="20" r="1" fill="#FFE66D"/>
</svg>
