<svg width="24" height="24" viewBox="0 0 24 24" fill="none" xmlns="http://www.w3.org/2000/svg">
  <path d="M22.56 12.25c0-.78-.07-1.53-.2-2.25H12v4.26h5.92c-.26 1.37-1.04 2.53-2.21 3.31v2.77h3.57c2.08-1.92 3.28-4.74 3.28-8.09z" fill="#4285F4"/>
  <path d="M12 23c2.97 0 5.46-.98 7.28-2.66l-3.57-2.77c-.98.66-2.23 1.06-3.71 1.06-2.86 0-5.29-1.66-6.57-3.9H2.9v2.84C4.66 20.43 8.1 23 12 23z" fill="#34A853"/>
  <path d="M5.43 14.09c-.22-.66-.35-1.36-.35-2.09s.13-1.43.35-2.09V7.07H2.9C2.17 8.45 1.8 10.15 1.8 12s.37 3.55 1.1 4.93l2.53-1.84z" fill="#FBBC05"/>
  <path d="M12 4.38c1.62 0 3.06.56 4.21 1.64l3.15-3.15C17.45 1.19 14.97 0 12 0 8.1 0 4.66 2.57 2.9 7.07l2.53 1.84C6.71 5.04 9.14 4.38 12 4.38z" fill="#EA4335"/>
</svg>
